<svg width="14" height="14" viewBox="0 0 14 14" fill="none" xmlns="http://www.w3.org/2000/svg">
<path d="M12.1975 6.48652V3.92569C12.1975 3.44736 11.8358 2.90486 11.3867 2.72402L8.13749 1.39402C7.40832 1.09652 6.58582 1.09652 5.85666 1.39402L2.60749 2.72402C2.16416 2.90486 1.80249 3.44736 1.80249 3.92569V6.48652C1.80249 9.33902 3.87332 12.0107 6.70249 12.7924C6.89499 12.8449 7.10499 12.8449 7.29749 12.7924C10.1267 12.0107 12.1975 9.33902 12.1975 6.48652ZM7.43749 7.50736V9.04152C7.43749 9.28069 7.23916 9.47902 6.99999 9.47902C6.76082 9.47902 6.56249 9.28069 6.56249 9.04152V7.50736C5.97332 7.32069 5.54166 6.77236 5.54166 6.12486C5.54166 5.31986 6.19499 4.66652 6.99999 4.66652C7.80499 4.66652 8.45832 5.31986 8.45832 6.12486C8.45832 6.77819 8.02666 7.32069 7.43749 7.50736Z" fill="white"/>
</svg>
